<svg xmlns="http://www.w3.org/2000/svg" viewBox="0 0 96 96" role="img" aria-label="NamEngine Pet mark">
  <path d="M47 8a38 38 0 1 0 31 60" fill="none" stroke="#c69b57" stroke-width="5" stroke-linecap="round"/>
  <path d="M42 11a39 39 0 0 0 0 74 34 34 0 0 1 0-74Z" fill="#c69b57"/>
  <path d="M32 54c4-11 13-18 25-16 12 2 21 12 21 25 0 13-11 21-26 21-15 0-25-7-25-18 0-4 2-8 5-12Z" fill="#d8eef0" stroke="#237f86" stroke-width="2.5"/>
  <path d="M43 61c-6 0-11 5-11 11s5 10 13 10h13c8 0 13-4 13-10s-5-11-11-11c-4 0-7 2-9 5-2-3-5-5-8-5Z" fill="#1a223f"/>
  <circle cx="31" cy="53" r="8" fill="#1a223f"/>
  <circle cx="43" cy="43" r="8" fill="#1a223f"/>
  <circle cx="58" cy="42" r="8" fill="#1a223f"/>
  <circle cx="72" cy="52" r="8" fill="#1a223f"/>
  <path d="M30 38c5-8 13-10 21-5" fill="none" stroke="#237f86" stroke-width="3" stroke-linecap="round"/>
  <path d="M75 20l3 7 7 3-7 3-3 7-3-7-7-3 7-3 3-7Z" fill="#c69b57"/>
  <circle cx="84" cy="44" r="3" fill="#237f86"/>
</svg>
