<svg xmlns="http://www.w3.org/2000/svg" viewBox="0 0 220 190" role="img" aria-label="NamEngine Pet mark">
  <path d="M60 128A74 74 0 1 1 180 126" fill="none" stroke="#143d73" stroke-width="12" stroke-linecap="round"/>
  <path d="M91 143A74 74 0 0 0 139 145" fill="none" stroke="#143d73" stroke-width="12" stroke-linecap="round"/>
  <text x="110" y="108" text-anchor="middle" font-family="Inter, Arial, sans-serif" font-size="82" font-weight="700" fill="#143d73">n</text>

  <circle cx="34" cy="148" r="13" fill="#2bb8c7"/>
  <circle cx="67" cy="127" r="16" fill="#2bb8c7"/>

  <g fill="none" stroke="#d86f63" stroke-width="5.5" stroke-linecap="round" stroke-linejoin="round">
    <path d="M160 125c-16 2-29 16-29 33 0 20 16 34 38 34 23 0 40-14 40-34 0-17-13-31-30-33"/>
    <path d="M161 127l-16-14c-5 11-3 23 5 30"/>
    <path d="M178 127l17-14c5 11 3 23-6 30"/>
    <path d="M154 153c5 5 10 5 15 0"/>
    <path d="M171 153c5 5 10 5 15 0"/>
    <path d="M166 165c4 4 8 4 12 0"/>
    <path d="M162 176c10 7 23 7 33 0"/>
  </g>
  <circle cx="160" cy="150" r="2.8" fill="#d86f63"/>
  <circle cx="185" cy="150" r="2.8" fill="#d86f63"/>
  <path d="M172 161l-4 4h8z" fill="#d86f63"/>
</svg>
