<svg xmlns="http://www.w3.org/2000/svg" width="600" height="500" viewBox="0 0 600 500">
  <rect width="600" height="500" fill="#fdf9f0"/>
  <g opacity="0.264" transform="translate(310,210)">
    <ellipse cx="0" cy="18" rx="62" ry="52" fill="none" stroke="#fffcf7" stroke-width="1.8"/>
    <ellipse cx="-72" cy="-40" rx="26" ry="36" fill="none" stroke="#fffcf7" stroke-width="1.44"/>
    <ellipse cx="-13" cy="-80" rx="26" ry="36" fill="none" stroke="#fffcf7" stroke-width="1.44"/>
    <ellipse cx="50" cy="-68" rx="26" ry="36" fill="none" stroke="#fffcf7" stroke-width="1.44"/>
    <ellipse cx="85" cy="-18" rx="21" ry="30" fill="none" stroke="#fffcf7" stroke-width="1.44"/>
  </g>
  <path d="M70,370 Q140,308 240,328 Q318,344 370,308 Q422,272 458,314" fill="none" stroke="#fffcf7" stroke-width="1.44" opacity="0.24" stroke-linecap="round" stroke-dasharray="5 8"/>
  <path d="M88,400 Q158,345 248,362" fill="none" stroke="#fffcf7" stroke-width="0.96" opacity="0.192" stroke-linecap="round" stroke-dasharray="4 9"/>
  <circle cx="486" cy="108" r="65" fill="none" stroke="#ef9f27" stroke-width="0.84" opacity="0.192"/>
  <circle cx="486" cy="108" r="36" fill="none" stroke="#ef9f27" stroke-width="0.72" opacity="0.168"/>
  <g opacity="0.336" transform="translate(458,90)">
    <circle cx="0" cy="0" r="12" fill="none" stroke="#fffcf7" stroke-width="1.8"/>
    <circle cx="36" cy="-13" r="9" fill="none" stroke="#fffcf7" stroke-width="1.44"/>
    <circle cx="8" cy="-33" r="9" fill="none" stroke="#fffcf7" stroke-width="1.44"/>
    <circle cx="-26" cy="-20" r="9" fill="none" stroke="#fffcf7" stroke-width="1.44"/>
  </g>
</svg>
